# xmcd
#
# Track frame offsets:
#	150
#	11132
#	23646
#	35760
#	46064
#	56658
#	68770
#	80136
#	89623
#	101702
#	112778
#	122751
#	135153
#	145573
#	156743
#	168072
#	180039
#	191479
#	202876
#	214965
#	227242
#	236316
#	249931
#	260713
#	272743
#	284761
#	298098
#	310841
#	321882
#	333765
#	345235
#
# Disc length: 4745 seconds
#
# Revision: 0
# Processed by: cddbd v1.5.1PL0 Copyright (c) Steve Scherf et al.
# Submitted via: EasyCDDAExtractor 4.6.9.1
#
DISCID=b812871f
DTITLE=Ernest Tubb - The Yellow Rose Of Texas - Disc 1
DYEAR=1993
DGENRE=Country
TTITLE0=Till We Two Are One
TTITLE1=Your Mother, Your Darling, Your Friend
TTITLE2=Baby Your Mother (Like She Babied You) 
TTITLE3=Jealous Loving Heart
TTITLE4=Two Glasses, Joe
TTITLE5=The Woman's Touch
TTITLE6=Journey's End
TTITLE7=Kansas City Blues
TTITLE8=Lonely Christmas Eve
TTITLE9=I'll Be Walking The Floor This Christmas
TTITLE10=Have You Seen My Boogie Woogie Baby
TTITLE11=It's A Lonely World
TTITLE12=I Got The Blues For Mammy
TTITLE13=(I'm Gonna Make My Home) A Million Miles From Here
TTITLE14=The Yellow Rose Of Texas
TTITLE15=Answer The Phone
TTITLE16=The Honeymoon Is Over
TTITLE17=Thirty Days
TTITLE18=Doorstep To Heaven
TTITLE19=Will You Be Satisfied That Way
TTITLE20=Steppin' Out
TTITLE21=If I Never Have Anything Else
TTITLE22=So Doggone Lonesome
TTITLE23=Old Love Letters (Bring Memories Of You)
TTITLE24=Jimmie Rogers' Last Blue Yodel
TTITLE25=Travelin' Blues
TTITLE26=You're The Only Good Thing (That's Happened To Me)
TTITLE27=I've Got The Blues For Mammy
TTITLE28=I Dreamed Of An Old Love Affair
TTITLE29=(I Know My Baby Loves Me) In Her Own Peculiar Way
TTITLE30=Mississippi Gal
EXTD=
EXTT0=
EXTT1=
EXTT2=
EXTT3=
EXTT4=
EXTT5=
EXTT6=
EXTT7=
EXTT8=
EXTT9=
EXTT10=
EXTT11=
EXTT12=
EXTT13=
EXTT14=
EXTT15=
EXTT16=
EXTT17=
EXTT18=
EXTT19=
EXTT20=
EXTT21=
EXTT22=
EXTT23=
EXTT24=
EXTT25=
EXTT26=
EXTT27=
EXTT28=
EXTT29=
EXTT30=
PLAYORDER=
